<svg xmlns="http://www.w3.org/2000/svg" viewBox="0 0 362.734 411.38">
    <path fill="#264de4" d="M362.734 0l-33.046 370.2-148.543 41.18L33.01 370.257 0 0z"/>
    <path fill="#2965f1" d="M301.397 346.626l28.24-316.352h-148.27v349.63z"/>
    <path fill="#ebebeb"
          d="M75.677 167.597l4.07 45.4h101.62v-45.4zm105.7-91.912H67.5l4.128 45.41h109.74zm0 257.094v-47.246l-.2.053-50.574-13.656-3.233-36.217H81.776l6.362 71.3 93.02 25.823z"/>
    <path fill="#fff"
          d="M237.128 213.007l-5.27 58.894-50.647 13.67v47.244l93.094-25.8 20.66-231.33H181.2v45.41h63.988l-4.132 46.5H181.2v45.4z"/>
</svg>