<svg xmlns="http://www.w3.org/2000/svg" width="2230" height="2500" viewBox="0 0 256 287"
     preserveAspectRatio="xMinYMin meet">
    <path d="M7.964 72.363L129.707 1.48 251.45 72.363v141.653L129.707 284.9 7.964 214.016V72.363z" fill="#c00"/>
    <path d="M133.12 143.132l113.21-65.194 4.55 131.413-117.76 71.11v-137.33z" fill="#fff"/>
    <path d="M248.036 73.956l-.342 139.264-118.1 68.494-.57-136.875 119.012-70.883zm-99.328 82.26l.34 91.478 39.254-22.87-.114-68.948 19.798-11.72v69.177l19.797-11.605.114-92.615-79.2 47.104z"
          fill="#c00"/>
    <path d="M137.444 2.503c-5.462-3.072-14.223-3.072-19.684 0L9.9 64.512C4.437 67.584.114 75.32.114 81.465v124.018c0 6.257 4.437 13.88 9.785 16.953l107.86 62.008c5.46 3.072 14.222 3.072 19.684 0l107.86-62.008c5.462-3.072 9.786-10.8 9.786-16.953V81.465c0-6.258-4.438-13.88-9.785-16.953l-107.86-62.01zm95.687 64.853c5.46 3.072 5.46 8.192 0 11.264l-94.436 54.272c-5.46 3.072-14.222 3.072-19.683 0L23.2 77.824c-5.462-3.072-5.462-8.192 0-11.264l94.435-54.272c5.462-3.072 14.222-3.072 19.684 0l95.8 55.068zM8.533 90.453c0-6.257 4.438-8.76 9.785-5.69l96.598 55.524c5.46 3.072 9.784 10.81 9.784 16.953v110.137c0 6.258-4.437 8.76-9.784 5.69l-96.598-55.524c-5.46-3.072-9.785-10.81-9.785-16.953V90.453zm134.6 180.907c-5.462 3.072-9.785.57-9.785-5.69V157.24c0-6.258 4.437-13.88 9.784-16.953l93.753-53.817c5.462-3.072 9.785-.57 9.785 5.69V200.6c0 6.258-4.437 13.88-9.785 16.953l-93.753 53.817z"
          fill="#910505"/>
</svg>